Motion_pu03
version=1
nRows=6
nColumns=43
inDegrees=yes
endheader
time	pelvis_tilt	pelvis_list	pelvis_rotation	pelvis_tx	pelvis_ty	pelvis_tz	hip_flexion_r	hip_adduction_r	hip_rotation_r	knee_angle_r	ankle_angle_r	subtalar_angle_r	mtp_angle_r	hip_flexion_l	hip_adduction_l	hip_rotation_l	knee_angle_l	ankle_angle_l	subtalar_angle_l	mtp_angle_l	lumbar_extension	lumbar_bending	lumbar_rotation	neck_flexion	neck_lateral_bending	neck_rotation	arm_flex_r	arm_add_r	arm_rot_r	elbow_flex_r	pro_sup_r	wrist_flex_r	wrist_dev_r	hand_finger_flex_r	arm_flex_l	arm_add_l	arm_rot_l	elbow_flex_l	pro_sup_l	wrist_flex_l	wrist_dev_l	hand_finger_flex_l
      5.18000000	     -3.67797615	    -59.24141690	    -98.19231129	      0.03495291	      1.31948768	      1.27439396	     19.13963209	     -5.42734146	     -4.42755539	    -44.28582221	     12.41464449	     -7.15822571	     23.05983180	     14.68390722	    -10.15714306	    -18.58096992	    -61.62487829	     12.94964459	     -6.35313268	     23.03968840	    -15.46059521	      1.06440857	      3.36017613	    -39.11907878	     -3.87390788	      6.25596115	     51.66779471	    -15.77561459	     -7.07191968	    117.97576985	    166.38545748	     27.88926275	      4.77822474	     67.36843038	     46.43267845	    -16.12125659	     -8.85991259	    121.02455094	    167.67367374	     24.63840156	     13.45510482	     84.06644131
      5.18250000	     -3.68251754	    -59.22022770	    -97.95481252	      0.03535301	      1.32204712	      1.27273292	     19.29289609	     -5.51954443	     -4.77832475	    -43.93064728	     12.45044421	     -6.74064210	     23.18606841	     14.88738688	    -10.09669118	    -18.43826642	    -61.24567439	     12.93597947	     -5.65982531	     23.38212779	    -15.51579239	      1.15868836	      3.14185806	    -39.35273740	     -4.00822111	      6.04995143	     51.05013308	    -15.73151964	     -7.17937853	    118.48837234	    166.72258814	     27.66515689	      4.68252366	     67.19112409	     45.75370628	    -16.18795492	     -8.97013056	    121.46191137	    167.86410196	     24.01669646	     13.26307280	     83.79217597
      5.18500000	     -3.73930827	    -59.26772295	    -97.92604359	      0.03528064	      1.32435195	      1.27085743	     19.45244853	     -5.42863114	     -4.71101850	    -43.65483818	     12.44369377	     -6.64777790	     23.20491358	     15.01529741	    -10.03495282	    -18.31445681	    -60.85781267	     12.88262587	     -5.56661783	     23.43526758	    -15.71992586	      1.17698275	      3.06455046	    -39.17997063	     -4.03049451	      6.02600355	     50.52405317	    -15.66906168	     -7.34639301	    118.99505917	    166.75657734	     27.62447665	      4.68013262	     67.19848211	     45.23000537	    -16.32027350	     -9.06431492	    121.94267204	    167.85956605	     23.93189708	     13.24987226	     83.78300825
      5.18750000	     -3.78281771	    -59.29971165	    -97.88066417	      0.03531128	      1.32682512	      1.26904034	     19.59716141	     -5.38320979	     -4.74848881	    -43.33530260	     12.40213417	     -6.53513256	     23.22059555	     15.12818984	     -9.98621432	    -18.25708491	    -60.45110884	     12.78840557	     -5.40715458	     23.49602351	    -15.88896707	      1.21487950	      2.98322140	    -39.09011932	     -4.08063202	      5.98132656	     49.96162929	    -15.60031311	     -7.50811019	    119.52086861	    166.82026536	     27.56087311	      4.67345146	     67.19196523	     44.63623965	    -16.43633106	     -9.18265926	    122.43336017	    167.85733767	     23.79337035	     13.23507324	     83.74434596
      5.19000000	     -3.80996646	    -59.30663966	    -97.80243544	      0.03542872	      1.32926918	      1.26718842	     19.73498526	     -5.37835343	     -4.89057618	    -42.93909385	     12.34976760	     -6.34865579	     23.25639549	     15.25177343	     -9.94203544	    -18.24125442	    -60.01804671	     12.70001005	     -5.14741609	     23.61958462	    -16.03962266	      1.27013324	      2.85546372	    -39.08542775	     -4.20419809	      5.90913940	     49.41429421	    -15.46928401	     -7.63914615	    120.03103126	    166.97625823	     27.44842806	      4.62610722	     67.13572591	     44.01622124	    -16.52148284	     -9.37568767	    122.92816013	    167.86733014	     23.49229277	     13.19455264	     83.61799959
      5.19250000	     -3.86298650	    -59.36027950	    -97.77039013	      0.03536630	      1.33176830	      1.26541431	     19.88529797	     -5.31178301	     -4.88068324	    -42.72602683	     12.32283431	     -6.21952230	     23.28355889	     15.34399066	     -9.88210033	    -18.13635883	    -59.62124595	     12.65353038	     -5.00256161	     23.68658465	    -16.22324670	      1.29771520	      2.75626470	    -38.98124105	     -4.24637070	      5.86404213	     48.86704322	    -15.40532666	     -7.74298234	    120.50965319	    167.05693817	     27.37873038	      4.59987981	     67.11680933	     43.41507799	    -16.71621941	     -9.47254688	    123.42009464	    167.84982146	     23.32233590	     13.16835952	     83.55739801
